# xmcd CD database file
#
# Track frame offsets:
#       150
#       16777
#       33123
#       53027
#       67573
#       90635
#       107605
#       124792
#       138084
#       159326
#
# Disc length: 2362 seconds
#
# Revision: 0
# Processed by: cddbd v1.5.2PL0 Copyright (c) Steve Scherf et al.
# Submitted via: jack 3.1.1
#
DISCID=6709380a
DTITLE=Stacey Zegers - Famous
DYEAR=2009
DGENRE=Country
TTITLE0=Sunflower
TTITLE1=Made You Mine
TTITLE2=Walk Away
TTITLE3=Rules
TTITLE4=Famous
TTITLE5=Livin the Dream
TTITLE6=Your my Home
TTITLE7=Talk is Cheap
TTITLE8=Do I have to Say the Words
TTITLE9=Empty Pillow
EXTD=
EXTT0=
EXTT1=
EXTT2=
EXTT3=
EXTT4=
EXTT5=
EXTT6=
EXTT7=
EXTT8=
EXTT9=
PLAYORDER=
